<svg width="10" height="15" viewBox="0 0 10 15" fill="none" xmlns="http://www.w3.org/2000/svg">
<path d="M3.80078 0.695084C4.05859 0.695084 4.1875 0.82399 4.1875 1.0818C4.1875 1.33961 4.05859 1.46852 3.80078 1.46852H2.25391C1.92969 1.46852 1.6543 1.5818 1.42773 1.80836C1.20508 2.03493 1.09375 2.30836 1.09375 2.62868V6.49586C1.09375 6.81618 1.20703 7.08961 1.43359 7.31618C1.66016 7.54274 1.93359 7.65602 2.25391 7.65602H3.80078C4.05859 7.65602 4.1875 7.78493 4.1875 8.04274C4.1875 8.30055 4.05859 8.42946 3.80078 8.42946H2.25391C1.71875 8.42946 1.26172 8.24196 0.882812 7.86696C0.507812 7.48805 0.320312 7.03102 0.320312 6.49586V2.62868C0.320312 2.09352 0.507812 1.63844 0.882812 1.26344C1.26172 0.884537 1.71875 0.695084 2.25391 0.695084H3.80078Z" fill="white"/>
<path d="M8.28368 10.663C8.63417 10.8514 8.89318 11.0819 9.06071 11.3546C9.0984 11.4159 9.12509 11.4747 9.14078 11.5307C9.16747 11.5895 9.19075 11.6503 9.21062 11.7132C9.08637 11.7707 8.9574 11.8359 8.8237 11.9087C8.69682 11.9772 8.56522 12.0534 8.4289 12.1372C8.26531 12.2377 8.10041 12.3437 7.9342 12.4552C7.77899 12.5694 7.60542 12.6995 7.41351 12.8456C7.22159 12.9917 7.01 13.1592 6.77874 13.3483C6.54749 13.5373 6.28162 13.7617 5.98113 14.0215C5.79086 14.0633 5.56708 14.0505 5.30979 13.9833C5.05669 13.9228 4.79288 13.822 4.51835 13.6809C4.49437 13.489 4.46649 13.2526 4.43471 12.9717C4.39874 12.6839 4.35259 12.3414 4.29626 11.9441C4.23574 11.54 4.15744 11.0764 4.06136 10.5533C3.96791 10.0191 3.8449 9.41398 3.69232 8.73779C3.58885 8.29433 3.49557 7.90565 3.41246 7.57174C3.32936 7.23783 3.24231 6.92043 3.15132 6.61954C3.06296 6.30764 2.96491 5.98761 2.85717 5.65946C2.74943 5.3313 2.62128 4.95465 2.47273 4.5295C2.77888 4.41651 3.07686 4.37426 3.36666 4.40275C3.6591 4.42025 3.9811 4.50878 4.33266 4.66834C4.33257 4.79046 4.34896 4.97757 4.3818 5.22969C4.41465 5.4818 4.45768 5.78869 4.51089 6.15035C4.56673 6.50101 4.63407 6.90094 4.7129 7.35015C4.78755 7.79254 4.87213 8.26638 4.96664 8.77167C5.06379 9.26596 5.14969 9.7343 5.22433 10.1767C5.29898 10.6191 5.36631 11.019 5.42634 11.3765C5.49318 11.7298 5.55535 12.0296 5.61283 12.276C5.67031 12.5223 5.73047 12.6966 5.79329 12.7989C5.89816 12.7251 5.9928 12.6575 6.07723 12.5962C6.16165 12.535 6.24738 12.4682 6.33443 12.396C6.41729 12.3169 6.50697 12.2336 6.60346 12.1461C6.70259 12.0477 6.81797 11.9298 6.94961 11.7926C7.06499 11.6748 7.17434 11.57 7.27765 11.4784C7.37677 11.3799 7.47667 11.2904 7.57735 11.2097C7.68066 11.1181 7.78816 11.0332 7.89984 10.9552C8.01416 10.8662 8.1421 10.7688 8.28368 10.663Z" fill="white"/>
</svg>
